<svg  enable-background="new 0 0 300 300" height="512" viewBox="0 0 300 300" width="512" xmlns="http://www.w3.org/2000/svg"><g><path d="m217.91 252.121h-158.46c-3.75 0-6.801 3.05-6.801 6.8v31.78c0 3.75 3.051 6.8 6.801 6.8h158.46c3.75 0 6.8-3.05 6.8-6.8v-31.78c-.001-3.75-3.051-6.8-6.8-6.8zm2.266 38.579c0 1.25-1.017 2.267-2.267 2.267h-158.459c-1.251 0-2.268-1.017-2.268-2.267v-31.78c0-1.25 1.017-2.267 2.268-2.267h13.576v15.886c0 1.252 1.015 2.267 2.267 2.267s2.267-1.015 2.267-2.267v-15.886h11.314v15.886c0 1.252 1.015 2.267 2.267 2.267s2.267-1.015 2.267-2.267v-15.886h11.314v15.886c0 1.252 1.015 2.267 2.267 2.267s2.267-1.015 2.267-2.267v-15.886h11.314v15.886c0 1.252 1.015 2.267 2.267 2.267s2.267-1.015 2.267-2.267v-15.886h11.314v15.886c0 1.252 1.015 2.267 2.267 2.267s2.267-1.015 2.267-2.267v-15.886h11.314v15.886c0 1.252 1.015 2.267 2.267 2.267s2.267-1.015 2.267-2.267v-15.886h11.314v15.886c0 1.252 1.015 2.267 2.267 2.267s2.267-1.015 2.267-2.267v-15.886h11.314v15.886c0 1.252 1.015 2.267 2.267 2.267s2.267-1.015 2.267-2.267v-15.886h11.314v15.886c0 1.252 1.015 2.267 2.267 2.267s2.267-1.015 2.267-2.267v-15.886h13.575c1.25 0 2.267 1.017 2.267 2.267v31.78z"/><path d="m297.155 163.614c0-.077-.036-.142-.044-.217-.015-.153-.044-.298-.09-.447-.047-.15-.105-.286-.181-.42-.036-.066-.043-.139-.087-.202l-20.377-29.501c-.846-1.227-2.884-1.225-3.73 0l-20.374 29.501c-.044.063-.051.137-.087.202-.075.135-.134.271-.181.42s-.076.294-.09.447c-.007.075-.044.14-.044.217l.001 122.553c0 6.249 5.084 11.333 11.333 11.333h22.616c6.249 0 11.333-5.084 11.333-11.333zm-40.752 2.267h36.218v106.663h-36.218zm18.108-27.779 16.056 23.245h-32.11zm18.109 148.065c0 3.749-3.051 6.8-6.8 6.8h-22.616c-3.749 0-6.8-3.051-6.8-6.8v-9.091h36.215v9.091z"/><path d="m267.72 172.694c-1.252 0-2.267 1.015-2.267 2.267v88.504c0 1.252 1.015 2.267 2.267 2.267s2.267-1.015 2.267-2.267v-88.504c0-1.252-1.015-2.267-2.267-2.267z"/><path d="m281.304 172.694c-1.252 0-2.267 1.015-2.267 2.267v88.504c0 1.252 1.015 2.267 2.267 2.267s2.267-1.015 2.267-2.267v-88.504c-.001-1.252-1.016-2.267-2.267-2.267z"/><path d="m58.786 173.362c-.883-.886-2.319-.886-3.206-.004-.886.884-.887 2.32-.004 3.206l9.054 9.077c.057.057.134.081.196.131.166.135.332.272.532.356.275.115.572.178.877.178.304 0 .601-.062.876-.178.209-.088.385-.229.557-.372.054-.045.123-.066.173-.115l9.056-9.077c.883-.886.882-2.322-.004-3.206-.887-.882-2.322-.882-3.206.004l-5.185 5.197v-95.695l5.184 5.196c.883.885 2.319.887 3.206.004.886-.884.887-2.32.004-3.206l-9.056-9.076c-.41-.411-.977-.665-1.603-.665-.617 0-1.174.25-1.582.65-.007.007-.017.008-.024.015l-9.054 9.076c-.883.886-.882 2.322.004 3.206.443.441 1.022.662 1.601.662.581 0 1.162-.222 1.605-.666l5.184-5.197v95.695z"/><path d="m216.315 228.76c.443.441 1.022.662 1.601.662.581 0 1.162-.222 1.605-.666l9.054-9.075c.024-.024.032-.057.054-.082.177-.193.331-.408.433-.653.106-.258.155-.531.163-.805 0-.021.012-.039.012-.061 0-.045-.023-.083-.026-.128-.014-.25-.052-.5-.148-.735-.116-.28-.282-.532-.493-.742l-9.049-9.074c-.883-.885-2.319-.887-3.206-.004-.886.884-.888 2.32-.004 3.206l5.196 5.21h-120.377l5.196-5.209c.883-.886.882-2.322-.004-3.206-.887-.883-2.322-.881-3.206.004l-9.052 9.075s-.001.001-.001.001l-.001.001c-.007.007-.009.016-.015.023-.2.205-.362.446-.473.714-.1.243-.141.5-.153.759-.002.037-.021.068-.021.105 0 .031.016.057.018.087.01.265.054.529.157.777.111.268.273.508.472.713.007.007.009.017.016.024l.001.001s.001.001.001.001l9.052 9.074c.443.444 1.024.666 1.605.666.579 0 1.158-.221 1.601-.662.886-.884.887-2.32.004-3.206l-5.196-5.208h120.377l-5.197 5.208c-.884.885-.883 2.32.004 3.205z"/><path d="m109.249 122.766h29.43c1.252 0 2.267-1.015 2.267-2.267v-14.783c0-9.365-7.618-16.983-16.982-16.983s-16.981 7.618-16.981 16.983v14.783c-.001 1.252 1.014 2.267 2.266 2.267zm2.266-17.05c0-6.864 5.584-12.45 12.448-12.45s12.449 5.585 12.449 12.45v12.516h-24.897z"/><path d="m206.597 120.502h-27.166c-1.252 0-2.267 1.015-2.267 2.267v29.501c0 1.252 1.015 2.267 2.267 2.267h27.166c1.252 0 2.267-1.015 2.267-2.267v-29.501c-.001-1.252-1.016-2.267-2.267-2.267zm-24.9 4.533h9.049v24.968h-9.049zm22.633 24.968h-9.05v-24.968h9.05z"/><path d="m240.556 195.386c0-1.252-1.015-2.267-2.267-2.267h-6.789v-86.029l4.724 1.644c.246.085.498.127.745.127.937 0 1.815-.587 2.141-1.522.411-1.183-.214-2.475-1.396-2.886l-76.395-26.579v-30.496l5.967-2.07c1.183-.411 1.809-1.702 1.399-2.885-.411-1.182-1.698-1.802-2.885-1.399l-85.594 29.7c-1.183.41-1.809 1.702-1.399 2.885.326.936 1.203 1.524 2.142 1.524.246 0 .497-.041.743-.126l4.913-1.705v119.818h-6.788c-1.252 0-2.267 1.015-2.267 2.267s1.015 2.267 2.267 2.267h158.473c1.251-.001 2.266-1.016 2.266-2.268zm-149.416-123.656 65.648-22.779v30.533c0 .003-.001.005-.001.008v113.628h-15.843v-43.12c0-1.252-1.015-2.267-2.267-2.267h-29.429c-1.252 0-2.267 1.015-2.267 2.267v43.119h-15.841zm20.375 121.39v-40.853h24.896v40.853zm49.806 0v-110.444l65.647 22.838v87.606z"/><path d="m242.818 236.236h-218.464c-9.361 0-16.976-7.636-16.976-17.022v-2.269c0-9.386 7.615-17.023 16.976-17.023h19.243c1.252 0 2.267-1.015 2.267-2.267v-165.661h239.967c3.744 0 6.79 3.055 6.79 6.809v102.119c0 1.252 1.015 2.267 2.267 2.267s2.267-1.015 2.267-2.267v-102.118c0-6.255-5.08-11.342-11.323-11.342h-239.968v-22.695c0-1.252-1.015-2.267-2.267-2.267h-19.243c-11.86 0-21.509 9.669-21.509 21.554v195.16c0 11.885 9.649 21.555 21.509 21.555h218.464c1.252 0 2.267-1.015 2.267-2.267 0-1.251-1.015-2.266-2.267-2.266zm-235.44-212.182c0-9.385 7.615-17.021 16.976-17.021h16.977v188.356h-16.977c-6.892 0-13.037 3.265-16.976 8.333z"/></g></svg>