<svg enable-background="new 0 0 500 500" height="512" viewBox="0 0 500 500" width="512" xmlns="http://www.w3.org/2000/svg"><path d="m450.387 158.399h-8.404c-6.627 0-12-5.373-12-12s5.373-12 12-12h8.404c6.627 0 12 5.373 12 12s-5.373 12-12 12z"/><path d="m470.388 45.627h-59.388v-28.7c0-6.627-5.373-12-12-12s-12 5.373-12 12v28.7h-274v-28.7c0-6.627-5.373-12-12-12s-12 5.373-12 12v28.7h-60.682c-15.615 0-28.318 12.704-28.318 28.318v389.89c0 17.225 14.013 31.237 31.238 31.237h437.491c17.243 0 31.271-14.028 31.271-31.271v-388.562c0-16.328-13.284-29.612-29.612-29.612zm5.612 418.175c0 4.009-3.262 7.271-7.271 7.271h-437.491c-3.991 0-7.238-3.247-7.238-7.237v-305.437h379.328c6.627 0 12-5.373 12-12s-5.373-12-12-12h-379.328v-60.454c0-2.381 1.937-4.318 4.318-4.318h60.682v14.3c0 6.627 5.373 12 12 12s12-5.373 12-12v-14.3h274v14.3c0 6.627 5.373 12 12 12s12-5.373 12-12v-14.3h59.388c3.094 0 5.612 2.518 5.612 5.612z"/><path d="m204.264 404.238-61.489-42.32c-5.459-3.757-6.839-11.229-3.082-16.688 3.757-5.46 11.229-6.839 16.688-3.081l53.128 36.565 132.293-136.597c4.611-4.761 12.208-4.882 16.969-.271 4.76 4.611 4.882 12.208.271 16.968l-139.355 143.888c-2.854 2.945-11.854 4.392-15.423 1.536z"/></svg>