<svg enable-background="new 0 0 1550 1550" height="512" viewBox="0 0 1550 1550" width="512" xmlns="http://www.w3.org/2000/svg"><g><g><g><g><g><path d="m267.9 773.3c-6.1 0-11.9-2.7-15.9-7.3l-52.1-60.4c-3.3-3.8-5.1-8.7-5.1-13.7v-46.3c0-11.6 9.4-21 21-21s21 9.4 21 21v38.5l31.1 36.1 31.1-36.1v-38.5c0-11.6 9.4-21 21-21s21 9.4 21 21v46.3c0 5-1.8 9.9-5.1 13.7l-52.1 60.4c-4 4.7-9.8 7.3-15.9 7.3z"/></g><g><g><path d="m403 550.2c-11.6 0-21-9.4-21-21v-52.8c0-62.7-51-113.8-113.6-114.1-30.1-.1-58.6 11.7-80.3 33.4-22 21.9-34.2 51-34.2 81.7v50.3c0 11.6-9.4 21-21 21s-21-9.4-21-21v-50.3c0-42 16.5-81.6 46.5-111.5 29.5-29.4 68.4-45.6 109.6-45.6h.5c41.6.2 80.6 16.5 110 45.9 29.4 29.5 45.5 68.6 45.5 110.2v52.8c0 11.6-9.4 21-21 21z"/></g><g><path d="m267.9 682.8c-61.7 0-111.9-50.2-111.9-111.9v-82.3c0-5.7 2.3-11.1 6.4-15.1s9.6-6.1 15.3-5.9c25.5.7 98.3-4.2 129.3-35.2 4.1-4.1 9.7-6.3 15.4-6.1s11.2 2.7 15.1 7l37 41.4c3.5 3.9 5.4 8.8 5.4 14v82.3c-.1 61.6-50.3 111.8-112 111.8zm-69.9-173.6v61.7c0 38.5 31.4 69.9 69.9 69.9s69.9-31.4 69.9-69.9v-74.3l-18.4-20.5c-20.9 14-48.9 23.8-83.4 29.2-14.4 2.3-27.6 3.4-38 3.9z"/></g></g><g><path d="m31 1132.7c-11.6 0-21-9.4-21-21v-286.6c0-26.8 8.4-52.3 24.3-73.8s37.8-37.1 63.4-45l112.3-34.8c11.1-3.4 22.8 2.8 26.3 13.9 3.4 11.1-2.8 22.8-13.9 26.3l-112.4 34.7c-34.7 10.7-58.1 42.4-58.1 78.7v286.6c.1 11.6-9.3 21-20.9 21z"/></g><g><path d="m72.4 1174c-34.4 0-62.4-28-62.4-62.4v-110.1c0-11.6 9.4-21 21-21s21 9.4 21 21v110.1c0 11.2 9.1 20.4 20.4 20.4 11.2 0 20.4-9.1 20.4-20.4v-110.1c0-11.6 9.4-21 21-21s21 9.4 21 21v110.1c-.1 34.5-28.1 62.4-62.4 62.4z"/></g><g><path d="m423 1223.6h-309.3c-11.6 0-21-9.4-21-21v-356c0-11.6 9.4-21 21-21s21 9.4 21 21v335h267.3v-327c0-9.9 3.9-19.3 10.9-26.3l237.8-237.8c4.3-4.3 6.7-10.1 6.7-16.2s-2.4-11.9-6.7-16.2c-8.9-8.9-23.5-8.9-32.4 0l-142.4 142.3c-29 29-71.2 39.4-110.4 27.3l-51.9-16.1c-11.1-3.4-17.4-15.1-14-26.2s15.1-17.4 26.2-14l.4.1h.1l51.6 16c24.2 7.5 50.3 1 68.3-16.9l142.4-142.4c25.3-25.3 66.5-25.3 91.8 0s25.3 66.5 0 91.8l-236.4 236.5v346c0 11.6-9.4 21.1-21 21.1z"/></g><g><g><path d="m268.1 773.2c-6.1 0-11.9-2.7-15.9-7.3l-52.1-60.4c-3.3-3.8-5.1-8.7-5.1-13.7v-46.2c0-11.6 9.4-21 21-21s21 9.4 21 21v38.4l31.1 36.1 31.1-36.1v-38.4c0-11.6 9.4-21 21-21s21 9.4 21 21v46.2c0 5-1.8 9.9-5.1 13.7l-52.1 60.5c-4 4.6-9.8 7.2-15.9 7.2z"/></g><g><g><path d="m319.1 808.6c-4.1 0-8.3-1.2-11.9-3.7l-39-27-39 27c-8.9 6.2-21.1 4.5-28.1-3.8l-63.5-75.9c-7.4-8.9-6.3-22.1 2.6-29.6s22.1-6.3 29.6 2.6l51.2 61.2 35.2-24.4c7.2-5 16.7-5 23.9 0l35.2 24.4 51.2-61.2c7.4-8.9 20.7-10.1 29.6-2.6 8.9 7.4 10.1 20.7 2.6 29.6l-63.5 75.9c-4.1 4.9-10.1 7.5-16.1 7.5z"/></g><g><g><path d="m268.1 1100.8c-6.9 0-13.4-3.4-17.4-9.2l-44.1-64.7c-3-4.5-4.2-10-3.3-15.3l.4-2.3 22-187.4c1.2-10.6 10.2-18.5 20.9-18.5h43c10.6 0 19.6 8 20.9 18.5l22 187.5.4 2.3c.2 1.1.3 2.3.3 3.4 0 4.2-1.3 8.3-3.6 11.8l-44.1 64.7c-3.9 5.7-10.4 9.2-17.4 9.2zm-22.1-90.9 22.2 32.6 22.2-32.6-19.3-164.6h-5.6z"/></g><g><path d="m289.6 845.3h-43c-9 0-17-5.7-19.9-14.2l-15.8-46.2c-3.8-11 2.1-22.9 13.1-26.7s22.9 2.1 26.7 13.1l11 32h13l11-32c3.8-11 15.7-16.8 26.7-13.1 11 3.8 16.8 15.7 13.1 26.7l-15.8 46.2c-3.1 8.5-11.1 14.2-20.1 14.2z"/></g></g></g></g></g><g><g><path d="m480.9 686.7c-11.6 0-21-9.4-21-21v-451.7c0-11.6 9.4-21 21-21s21 9.4 21 21v451.7c0 11.6-9.4 21-21 21z"/></g><g><path d="m1451.2 887.2h-970.3c-11.6 0-21-9.4-21-21v-76.2c0-11.6 9.4-21 21-21s21 9.4 21 21v55.3h928.4v-631.3c0-11.6 9.4-21 21-21s21 9.4 21 21v652.2c-.1 11.6-9.5 21-21.1 21z"/></g><g><g><g><path d="m1030.3 761.5c-8.7 0-16.8-5.4-19.8-14.1l-119.6-343.7-119.7 343.7c-3.8 11-15.8 16.7-26.7 12.9-11-3.8-16.7-15.8-12.9-26.7l139.4-400.7c2.9-8.4 10.9-14.1 19.8-14.1s16.9 5.7 19.8 14.1l139.5 400.7c3.8 11-2 22.9-12.9 26.7-2.2.8-4.6 1.2-6.9 1.2z"/></g><g><path d="m983.5 626.9h-185.3c-11.6 0-21-9.4-21-21s9.4-21 21-21h185.3c11.6 0 21 9.4 21 21s-9.4 21-21 21z"/></g></g><g><g><path d="m1207.6 761.5c-53.6 0-97.1-48.6-97.1-108.4s43.6-108.4 97.1-108.4 97.1 48.6 97.1 108.4-43.6 108.4-97.1 108.4zm0-174.8c-30.4 0-55.1 29.8-55.1 66.4s24.7 66.4 55.1 66.4 55.1-29.8 55.1-66.4-24.7-66.4-55.1-66.4z"/></g><g><path d="m1315.1 757.3c-5.4 0-10.7-2-14.8-6.2-34.5-34.5-37.4-94.6-37.5-97.2-.5-11.6 8.5-21.4 20.1-21.9s21.3 8.5 21.9 20.1c.6 12.8 6.3 50.3 25.2 69.3 8.2 8.2 8.2 21.5 0 29.7-4.2 4.1-9.5 6.2-14.9 6.2z"/></g></g></g></g><g><g><g><path d="m925.4 1452.1h-393.8c-11.6 0-21-9.4-21-21v-49c0-113.6 92.4-206 206-206h23.8c113.6 0 206 92.4 206 206v49c0 11.6-9.4 21-21 21zm-372.8-42h351.8v-28c0-90.4-73.6-164-164-164h-23.8c-90.4 0-164 73.6-164 164z"/></g><g><path d="m728.5 1218.1c-72.4 0-131.2-58.9-131.2-131.2 0-72.4 58.9-131.2 131.2-131.2s131.2 58.9 131.2 131.2c0 72.4-58.9 131.2-131.2 131.2zm0-220.4c-49.2 0-89.2 40-89.2 89.2s40 89.2 89.2 89.2 89.2-40 89.2-89.2-40-89.2-89.2-89.2z"/></g></g><g><g><path d="m1400.5 1452.1h-393.8c-11.6 0-21-9.4-21-21v-49c0-113.6 92.4-206 206-206h23.8c113.6 0 206 92.4 206 206v49c0 11.6-9.4 21-21 21zm-372.8-42h351.8v-28c0-90.4-73.6-164-164-164h-23.8c-90.4 0-164 73.6-164 164z"/></g><g><path d="m1203.6 1218.1c-72.4 0-131.2-58.9-131.2-131.2 0-72.4 58.9-131.2 131.2-131.2 72.4 0 131.2 58.9 131.2 131.2.1 72.4-58.8 131.2-131.2 131.2zm0-220.4c-49.2 0-89.2 40-89.2 89.2s40 89.2 89.2 89.2 89.2-40 89.2-89.2-40-89.2-89.2-89.2z"/></g></g></g></g><g><path d="m1519 235h-1105.9c-11.6 0-21-9.4-21-21v-95.1c0-11.6 9.4-21 21-21h1105.9c11.6 0 21 9.4 21 21v95.1c0 11.6-9.4 21-21 21zm-1084.9-42h1063.9v-53.1h-1063.9z"/></g></g><g><path d="m376 603.1h-18.3c-11.6 0-21-9.4-21-21s9.4-21 21-21h18.3c6.8 0 12.3-5.5 12.3-12.3 0-1.7-.3-3.2-.9-4.7s-1.5-2.9-2.7-4c-2.3-2.3-5.4-3.6-8.7-3.6h-17.2c-11.6 0-21-9.4-21-21s9.4-21 21-21h17.2c14.5 0 28.2 5.7 38.4 15.9 5.1 5.1 9 11 11.7 17.6 2.8 6.6 4.2 13.6 4.2 20.9 0 29.8-24.3 54.2-54.3 54.2z"/></g><g><path d="m175.9 603.1h-17.2c-14.5 0-28.2-5.7-38.4-15.9-5.1-5.1-9-11-11.7-17.6-2.8-6.6-4.2-13.6-4.2-20.9 0-30 24.4-54.3 54.3-54.3h18.3c11.6 0 21 9.4 21 21s-9.4 21-21 21h-18.3c-6.8 0-12.3 5.5-12.3 12.3 0 1.7.3 3.2.9 4.7s1.5 2.9 2.7 4c2.3 2.3 5.4 3.6 8.7 3.6h17.2c11.6 0 21 9.4 21 21s-9.4 21.1-21 21.1z"/></g></g></svg>