<svg height="512pt" viewBox="0 0 512 511" width="512pt" xmlns="http://www.w3.org/2000/svg"><path d="m512 234.042969-256-233.542969-256 233.542969 26.929688 29.523437 23.273437-21.230468v209.789062c0 33.050781 26.890625 59.941406 59.941406 59.941406h291.710938c33.050781 0 59.9375-26.890625 59.9375-59.941406v-209.789062l23.273437 21.230468zm-90.164062 218.082031c0 11.015625-8.964844 19.980469-19.980469 19.980469h-291.710938c-11.015625 0-19.980469-8.964844-19.980469-19.980469v-246.246094l165.835938-151.289062 165.835938 151.289062zm-146.855469-262.457031v186.246093l21.835937-21.835937 28.257813 28.257813-69.074219 69.074218-69.074219-69.074218 28.257813-28.257813 19.835937 19.839844v-182.25l-19.835937 19.835937-28.257813-28.253906 69.074219-69.074219 69.074219 69.074219-28.257813 28.253906zm0 0"/></svg>