<svg height="480pt" viewBox="0 0 480 480" width="480pt" xmlns="http://www.w3.org/2000/svg"><path d="m472 144h-8v-88c0-4.417969-3.582031-8-8-8h-136v-40c0-4.417969-3.582031-8-8-8h-144c-4.417969 0-8 3.582031-8 8v40h-136c-4.417969 0-8 3.582031-8 8v88h-8c-4.417969 0-8 3.582031-8 8v32c0 4.417969 3.582031 8 8 8h8v280c0 4.417969 3.582031 8 8 8h432c4.417969 0 8-3.582031 8-8v-280h8c4.417969 0 8-3.582031 8-8v-32c0-4.417969-3.582031-8-8-8zm-152-80h128v80h-128zm-144-48h128v128h-128zm-144 48h128v80h-128zm360 400h-104v-64h104zm0-80h-104v-80h104zm0-96h-104v-40h104zm56 176h-40v-224c0-4.417969-3.582031-8-8-8h-120c-4.417969 0-8 3.582031-8 8v224h-240v-272h416zm16-288h-448v-16h448zm0 0"/><path d="m80 408h144c4.417969 0 8-3.582031 8-8v-40c0-4.417969-3.582031-8-8-8h-8v-112c0-4.417969-3.582031-8-8-8h-112c-4.417969 0-8 3.582031-8 8v112h-8c-4.417969 0-8 3.582031-8 8v40c0 4.417969 3.582031 8 8 8zm24-160h96v104h-96zm-16 120h128v24h-128zm0 0"/><path d="m368 352c4.417969 0 8-3.582031 8-8v-8c0-4.417969-3.582031-8-8-8s-8 3.582031-8 8v8c0 4.417969 3.582031 8 8 8zm0 0"/><path d="m280 56h-16v-16c0-4.417969-3.582031-8-8-8h-32c-4.417969 0-8 3.582031-8 8v16h-16c-4.417969 0-8 3.582031-8 8v32c0 4.417969 3.582031 8 8 8h16v16c0 4.417969 3.582031 8 8 8h32c4.417969 0 8-3.582031 8-8v-16h16c4.417969 0 8-3.582031 8-8v-32c0-4.417969-3.582031-8-8-8zm-8 32h-16c-4.417969 0-8 3.582031-8 8v16h-16v-16c0-4.417969-3.582031-8-8-8h-16v-16h16c4.417969 0 8-3.582031 8-8v-16h16v16c0 4.417969 3.582031 8 8 8h16zm0 0"/><path d="m133.65625 301.65625 24-24c3.03125-3.140625 2.988281-8.128906-.097656-11.214844-3.085938-3.085937-8.074219-3.128906-11.214844-.097656l-24 24c-2.078125 2.007812-2.914062 4.984375-2.179688 7.78125.730469 2.796875 2.914063 4.980469 5.710938 5.710938 2.796875.734374 5.773438-.101563 7.78125-2.179688zm0 0"/><path d="m170.34375 282.34375-40 40c-2.078125 2.007812-2.914062 4.984375-2.179688 7.78125.730469 2.796875 2.914063 4.980469 5.710938 5.710938 2.796875.734374 5.773438-.101563 7.78125-2.179688l40-40c3.03125-3.140625 2.988281-8.128906-.097656-11.214844-3.085938-3.085937-8.074219-3.128906-11.214844-.097656zm0 0"/></svg>