<svg enable-background="new 0 0 62 62" height="512" viewBox="0 0 62 62" width="512" xmlns="http://www.w3.org/2000/svg"><ellipse id="XMLID_608_" cx="28.077" cy="45.422" rx="1.214" ry="1.17"/><path id="XMLID_620_" d="m32.443 5.922h-5.065c-.552 0-.998-.448-.998-1.001s.446-1.001.998-1.001h5.065c.552 0 .998.448.998 1.001s-.446 1.001-.998 1.001z"/><path id="XMLID_622_" d="m24.476 5.742c-.473 0-.857-.368-.857-.821s.384-.821.857-.821.858.368.858.821c-.001.453-.386.821-.858.821z"/><path id="XMLID_632_" d="m23.894 25.161c-1.138 0-1.755-1.751-1.755-2.667 0-.925.616-2.666 1.755-2.666 1.138 0 1.756 1.749 1.756 2.666 0 .919-.617 2.667-1.756 2.667z"/><path id="XMLID_634_" d="m32.171 25.161c-1.138 0-1.756-1.751-1.756-2.667 0-.925.617-2.666 1.756-2.666s1.755 1.749 1.755 2.666c0 .919-.615 2.667-1.755 2.667z"/><path id="XMLID_637_" d="m27.985 31.97c-2.365 0-4.539-1.053-5.816-2.815-.324-.447-.224-1.073.221-1.398.448-.326 1.07-.225 1.395.222.902 1.246 2.472 1.989 4.2 1.989 1.826 0 3.491-.846 4.346-2.208.294-.466.91-.607 1.378-.314.466.295.606.912.313 1.38-1.219 1.94-3.532 3.144-6.037 3.144z"/><path id="XMLID_1005_" d="m55.895 52.471-3.66-7.334c-1.147-2.298-1.324-4.897-.498-7.318l1.145-3.361c1.068-3.132.439-6.533-1.684-9.099-.032-.039-.066-.075-.104-.108-.052-.046-4.433-4.002-7.768-9.634v-10.219c0-2.759-2.239-5.004-4.991-5.004h-20.608c-1.68 0-3.162.843-4.067 2.122l-1.674-1.59c-1.571-1.495-4.4-1.14-5.484.77-1.402 2.474.389 6.101 2.219 7.824l4.015 3.779v3.833c-.707.138-1.386.441-1.952.937-1.66 1.457-1.768 4.037-.206 5.612l1.15 1.16c-1.703.418-3.027 1.875-3.089 3.661-.044 1.255.546 2.278 1.415 3.128-.647.153-1.267.44-1.789.897-1.662 1.456-1.769 4.038-.206 5.613l2.838 2.862c.518.522 1.159.86 1.839 1.048v2.926c0 2.759 2.239 5.004 4.991 5.004h.454c3.807 6.199 15.359 6.003 18.011 5.865l4.74 5.795c.308.375.876.472 1.29.221l13.297-8.086c.445-.271.608-.838.376-1.304zm-38.168-50.075h20.608c1.651 0 2.995 1.347 2.995 3.002v6.637c-.412-.419-.954-.619-1.536-.591v-3.028c0-.553-.446-1.001-.998-1.001h-21.529c-.552 0-.998.448-.998 1.001v9.597c-.457-.379-.979-.648-1.536-.803v-11.812c-.001-1.656 1.343-3.002 2.994-3.002zm17.967 38.561h-17.675v-2.657c0-1.204-.581-2.188-1.414-3.004 1.858-.44 3.216-2.235 3.077-4.157-.112-1.547-1.219-2.49-2.233-3.513 2.879-.707 4.118-4.326 1.959-6.503l-1.144-1.153v-10.554h19.532v3.492c-.969 1.432-1.851 3.233-1.676 5.013.143 1.453.814 2.684 1.676 3.823 0 0-.023 13.305-.018 13.324-1.237 1.769-1.883 3.745-2.084 5.889zm4.099-16.573 2.207 2.918-.172 4.021c-.484.278-1.229.763-2.035 1.476zm-29.705-16.323c-1.367-1.287-2.095-3.057-1.997-4.858.069-1.239 1.721-1.585 2.522-.823l2.215 2.104c-.36 1.942-.092 4.103-.092 6.07zm5.066 11.611 2.839 2.862c.756.764.7 1.989-.104 2.695-.875.767-2.245.72-3.056-.097l-2.839-2.862c-.756-.764-.669-1.954.104-2.695 1.07-1.025 2.256-.636 3.056.097zm-.81 7.661 2.838 2.862c.757.763.702 1.989-.103 2.695-.738.647-1.828.71-2.639.222l-3.256-3.179c-.758-.764-.692-1.978.104-2.695.823-.741 2.103-.694 3.056.095zm-4.869 9.396c-.757-.764-.701-1.989.104-2.695.719-.63 1.829-.7 2.643-.216l3.251 3.176c.371.375.566.858.549 1.359-.018.507-.25.981-.654 1.335-.856.754-2.258.709-3.055-.097zm8.252 11.249c-1.651 0-2.995-1.347-2.995-3.002v-2.838c.449-.088.887-.244 1.291-.476-.029.633.268 1.297.998 1.297h18.632c.138 2.227.854 3.897 1.57 5.019zm24.201 11.721-4.515-5.519c-.19-.233-.475-.366-.772-.366-.026 0-.053.001-.079.003-.125.009-11.533.854-15.917-3.837h18.719c.919 0 1.333-1.206.623-1.783-.125-.102-3.05-2.547-2.221-7.823.839-5.343 5.261-7.437 5.447-7.523.343-.155.57-.492.586-.869l.212-4.956c.01-.233-.061-.462-.202-.647l-4.892-6.467c-.443-.66-.722-1.425-.81-2.214-.115-1.033.636-2.832 1.806-4.278 3.331 7.267 9.103 12.641 9.795 13.269 1.646 2.028 2.066 4.686 1.275 7.153-.358 1.116-.756 2.219-1.134 3.328-1 2.933-.787 6.08.602 8.86l3.248 6.51z"/></svg>