<svg version="1.1" xmlns="http://www.w3.org/2000/svg" xmlns:xlink="http://www.w3.org/1999/xlink" x="0px" y="0px" viewBox="0 0 512 512" style="enable-background:new 0 0 512 512;" xml:space="preserve"><g><g><path d="M143.5,326.255c-4.142,0-7.5,3.358-7.5,7.5v13.5c0,4.142,3.358,7.5,7.5,7.5c4.142,0,7.5-3.358,7.5-7.5v-13.5 C151,329.613,147.642,326.255,143.5,326.255z"/></g></g><g><g><path d="M488.312,425.849h-12.143V217.76c20.115-3.56,35.445-21.155,35.445-42.276v-28.876c0-0.147-0.014-0.291-0.022-0.436 c-0.005-0.081-0.005-0.162-0.012-0.243c-0.027-0.296-0.068-0.587-0.128-0.871c-0.003-0.017-0.009-0.033-0.013-0.049 c-0.059-0.273-0.136-0.539-0.224-0.8c-0.022-0.066-0.048-0.132-0.072-0.197c-0.083-0.224-0.175-0.442-0.278-0.655 c-0.019-0.039-0.031-0.08-0.05-0.118L477.653,77.29V42.796c0-8.902-7.243-16.145-16.145-16.145H120.456 c-4.142,0-7.5,3.358-7.5,7.5c0,4.142,3.358,7.5,7.5,7.5h341.052c0.631,0,1.145,0.514,1.145,1.145V71.64H49.347V42.796 c0-0.631,0.514-1.145,1.145-1.145H85.56c4.142,0,7.5-3.358,7.5-7.5c0-4.142-3.358-7.5-7.5-7.5H50.492 c-8.902,0-16.145,7.243-16.145,16.145V77.29L1.186,143.239c-0.019,0.039-0.032,0.08-0.05,0.118 c-0.103,0.213-0.195,0.431-0.278,0.655c-0.024,0.066-0.05,0.131-0.072,0.197c-0.088,0.261-0.165,0.527-0.224,0.8 c-0.004,0.016-0.009,0.032-0.013,0.049c-0.06,0.285-0.102,0.575-0.128,0.871c-0.007,0.081-0.007,0.162-0.012,0.243 c-0.008,0.145-0.022,0.289-0.022,0.436v28.876c0,21.12,15.33,38.716,35.445,42.276v208.089H23.688 C10.626,425.849,0,436.476,0,449.538v23.722c0,6.666,5.423,12.089,12.089,12.089h487.822c6.666,0,12.089-5.423,12.089-12.089 v-23.722C512,436.476,501.374,425.849,488.312,425.849z M496.613,175.485c0,15.409-12.536,27.945-27.945,27.945 s-27.945-12.536-27.945-27.945v-21.376h55.89L496.613,175.485L496.613,175.485z M465.565,86.64l26.382,52.468h-53.448 L419.655,86.64H465.565z M403.716,86.64l18.844,52.468h-54.17L357.083,86.64H403.716z M425.724,154.108v21.376 c0,15.409-12.536,27.945-27.945,27.945s-27.945-12.536-27.945-27.945v-21.376H425.724z M341.739,86.64l11.307,52.468h-54.62 l-3.769-52.468H341.739z M354.834,154.108v21.376c0,15.409-12.536,27.945-27.944,27.945c-15.408,0-27.945-12.536-27.945-27.945 v-21.376H354.834z M232.382,86.64h47.235l3.769,52.468h-54.773L232.382,86.64z M228.055,154.108h55.89v21.376 c0,15.409-12.536,27.945-27.945,27.945s-27.945-12.536-27.945-27.945V154.108z M256,218.429c14.704,0,27.701-7.431,35.445-18.732 c7.744,11.301,20.741,18.732,35.445,18.732c14.704,0,27.701-7.431,35.444-18.732c7.744,11.301,20.741,18.732,35.445,18.732 c14.704,0,27.701-7.431,35.445-18.732c6.396,9.334,16.379,16.016,27.945,18.063v208.089H178.836V259.185 c0-7.692-6.258-13.95-13.95-13.95H78.177c-7.692,0-13.95,6.258-13.95,13.95v166.664H50.832V217.76 c11.566-2.047,21.549-8.729,27.945-18.063c7.744,11.301,20.741,18.732,35.445,18.732c14.704,0,27.701-7.431,35.445-18.732 c7.744,11.301,20.741,18.732,35.444,18.732s27.701-7.431,35.445-18.732C228.299,210.998,241.296,218.429,256,218.429z M163.836,260.235v165.614H79.227V260.235H163.836z M86.276,175.485v-21.376h55.89v21.376c0,15.409-12.536,27.945-27.945,27.945 S86.276,190.893,86.276,175.485z M170.261,86.64h47.082l-3.769,52.468h-54.62L170.261,86.64z M157.166,154.108h55.889v21.376 c0,15.409-12.536,27.945-27.945,27.945s-27.944-12.536-27.944-27.945V154.108z M154.916,86.64l-11.307,52.468h-54.17 l18.844-52.468H154.916z M46.435,86.64h45.91l-18.844,52.468H20.053L46.435,86.64z M15.387,175.485v-21.376h55.89v21.376 c0,15.409-12.536,27.945-27.945,27.945C27.923,203.43,15.387,190.893,15.387,175.485z M15,470.349v-20.812 c0-4.791,3.897-8.688,8.688-8.688h464.623c4.791,0,8.688,3.897,8.688,8.688v20.812H15z"/></g></g><g><g><path d="M426.773,245.235H335.06c-4.142,0-7.5,3.358-7.5,7.5c0,4.142,3.358,7.5,7.5,7.5h90.664V378.27H209.5V260.235h90.25 c4.142,0,7.5-3.358,7.5-7.5c0-4.142-3.358-7.5-7.5-7.5h-91.3c-7.692,0-13.95,6.257-13.95,13.95v120.136 c0,7.692,6.258,13.95,13.95,13.95h218.323c7.692,0,13.95-6.258,13.95-13.95V259.185 C440.723,251.493,434.465,245.235,426.773,245.235z"/></g></g></svg>